<svg width="139" height="50" viewBox="0 0 139 50" fill="none" xmlns="http://www.w3.org/2000/svg">
<path d="M31.3822 33.9447L25.7766 39.5504C25.603 39.7239 25.3676 39.8213 25.1222 39.8213C24.8768 39.8213 24.6415 39.7239 24.4679 39.5504L16.6167 31.6992C16.2259 31.3084 15.5923 31.3087 15.2019 31.6998L7.18808 39.728C7.10211 39.8142 6.99998 39.8826 6.88755 39.9293C6.77511 39.9759 6.65457 39.9999 6.53284 39.9999C6.4111 39.9999 6.29056 39.9759 6.17813 39.9293C6.06569 39.8826 5.96356 39.8142 5.87759 39.728L0.270971 34.1085C0.0974685 33.9349 0 33.6996 0 33.4542C0 33.2087 0.0974685 32.9734 0.270971 32.7998L8.28696 24.7821C8.67769 24.3913 8.67733 23.7577 8.28615 23.3673L0.436634 15.5339C0.263131 15.3603 0.165663 15.125 0.165663 14.8796C0.165663 14.6342 0.263131 14.3988 0.436634 14.2252L6.05714 8.60475C6.14309 8.5187 6.24516 8.45044 6.35751 8.40386C6.46986 8.35729 6.59029 8.33331 6.71192 8.33331C6.83354 8.33331 6.95397 8.35729 7.06633 8.40386C7.17868 8.45044 7.28075 8.5187 7.3667 8.60475L15.2019 16.4544C15.5923 16.8455 16.226 16.8458 16.6167 16.4551L24.2893 8.78337C24.4628 8.60986 24.6982 8.5124 24.9436 8.5124C25.189 8.5124 25.4244 8.60986 25.5979 8.78337L31.2027 14.3881C31.2887 14.4741 31.357 14.5762 31.4036 14.6885C31.4502 14.8009 31.4741 14.9213 31.4741 15.0429C31.4741 15.1645 31.4502 15.285 31.4036 15.3973C31.357 15.5097 31.2887 15.6117 31.2027 15.6977L23.5307 23.3672C23.14 23.7577 23.14 24.391 23.5305 24.7815L31.3822 32.6332C31.4686 32.7192 31.5371 32.8214 31.5838 32.9339C31.6305 33.0465 31.6546 33.1671 31.6546 33.289C31.6546 33.4108 31.6305 33.5314 31.5838 33.644C31.5371 33.7565 31.4686 33.8587 31.3822 33.9447Z" fill="#FFBFFF"/>
<line x1="46.647" y1="25" x2="81.6866" y2="25" stroke="#48FFCC" stroke-width="8.33333"/>
<path d="M123.255 10.6214C123.787 10.552 124.279 10.9147 124.37 11.4433L127.389 28.9749C127.542 29.8626 126.535 30.4841 125.81 29.9495L105.15 14.7179C104.425 14.1834 104.721 13.0379 105.615 12.9214L123.255 10.6214Z" fill="#A094FF"/>
<path d="M103.577 39.4475C103.045 39.5196 102.552 39.1595 102.458 38.6314L99.348 21.1156C99.1906 20.2287 100.194 19.602 100.922 20.1328L121.66 35.2573C122.388 35.788 122.098 36.935 121.205 37.0561L103.577 39.4475Z" fill="#A094FF"/>
</svg>
