<svg width="94" height="34" viewBox="0 0 94 34" fill="none" xmlns="http://www.w3.org/2000/svg">
<path d="M21.3076 23.0474L17.5015 26.8535C17.3837 26.9713 17.2239 27.0375 17.0572 27.0375C16.8906 27.0375 16.7308 26.9713 16.613 26.8535L11.5095 21.75C11.1187 21.3592 10.485 21.3595 10.0946 21.7506L4.8805 26.9742C4.82212 27.0327 4.75278 27.0791 4.67644 27.1108C4.6001 27.1425 4.51826 27.1588 4.4356 27.1588C4.35295 27.1588 4.27111 27.1425 4.19476 27.1108C4.11842 27.0791 4.04908 27.0327 3.99071 26.9742L0.183981 23.1587C0.0661782 23.0408 0 22.881 0 22.7144C0 22.5478 0.0661782 22.388 0.183981 22.2701L5.39941 17.0536C5.79015 16.6628 5.78979 16.0291 5.39861 15.6387L0.296461 10.5471C0.178658 10.4292 0.11248 10.2694 0.11248 10.1028C0.11248 9.93617 0.178658 9.77637 0.296461 9.65853L4.11262 5.84238C4.17097 5.78395 4.24028 5.7376 4.31656 5.70598C4.39285 5.67436 4.47461 5.65808 4.55719 5.65808C4.63977 5.65808 4.72154 5.67436 4.79783 5.70598C4.87411 5.7376 4.94341 5.78395 5.00177 5.84238L10.0947 10.9446C10.4851 11.3358 11.1187 11.3361 11.5095 10.9453L16.4917 5.96365C16.6095 5.84585 16.7693 5.77967 16.936 5.77967C17.1026 5.77967 17.2624 5.84585 17.3802 5.96365L21.1857 9.76912C21.2441 9.82748 21.2905 9.89679 21.3221 9.97307C21.3537 10.0494 21.37 10.1311 21.37 10.2137C21.37 10.2963 21.3537 10.3781 21.3221 10.4543C21.2905 10.5306 21.2441 10.5999 21.1857 10.6583L16.2037 15.6386C15.8131 16.0292 15.813 16.6624 16.2036 17.053L21.3076 22.157C21.3662 22.2154 21.4127 22.2848 21.4445 22.3612C21.4762 22.4376 21.4925 22.5195 21.4925 22.6022C21.4925 22.6849 21.4762 22.7669 21.4445 22.8433C21.4127 22.9197 21.3662 22.989 21.3076 23.0474Z" fill="#FFBFFF"/>
<line x1="31.6719" y1="16.9742" x2="55.4627" y2="16.9742" stroke="#48FFCC" stroke-width="5.65808"/>
<path d="M83.3809 7.25144C83.9128 7.18209 84.4047 7.54473 84.4957 8.07333L86.3579 18.8867C86.5108 19.7744 85.504 20.3958 84.779 19.8613L72.0364 10.4666C71.3113 9.93205 71.6073 8.78656 72.5005 8.6701L83.3809 7.25144Z" fill="#A094FF"/>
<path d="M70.631 26.7423C70.0995 26.8144 69.6057 26.4543 69.512 25.9261L67.5938 15.1226C67.4364 14.2357 68.4399 13.609 69.1677 14.1398L81.9587 23.4684C82.6865 23.9992 82.3965 25.1462 81.5039 25.2673L70.631 26.7423Z" fill="#A094FF"/>
</svg>
